<svg xmlns="http://www.w3.org/2000/svg" viewBox="0 0 32 32" fill="none">
  <rect width="32" height="32" rx="8" fill="url(#fav)"/>
  <defs>
    <linearGradient id="fav" x1="0" y1="0" x2="32" y2="32">
      <stop stop-color="#38bdf8"/>
      <stop offset="1" stop-color="#0ea5e9"/>
    </linearGradient>
  </defs>
  <path fill="#fff" fill-opacity=".95" d="M8 10h5c1.1 0 2 .9 2 2v10a.5.5 0 0 1-1 0V14H9v8a.5.5 0 0 1-1 0V12c0-1.1.9-2 2-2Zm7 0h5c1.1 0 2 .9 2 2v8a.5.5 0 0 1-1 0V14h-5v6a.5.5 0 0 1-1 0V12c0-1.1.9-2 2-2Z"/>
</svg>
